<?xml version="1.0" encoding="utf-8"?>
<!-- Generator: Adobe Illustrator 18.1.1, SVG Export Plug-In . SVG Version: 6.00 Build 0)  -->
<svg version="1.1" id="Layer_1" xmlns="http://www.w3.org/2000/svg" xmlns:xlink="http://www.w3.org/1999/xlink" x="0px" y="0px"
	 width="200px" height="200px" viewBox="0 0 200 200" style="enable-background:new 0 0 200 200;" xml:space="preserve">
<style type="text/css">
	.st0{fill:#000000;}
</style>
<g>

    <path class="st0" d="M115.51,107.88l-4.52-2.21c-2.97-1.46-4.15-5.08-2.6-8.01l2.35-4.44c2.92-5.51-1.77-11.97-7.92-10.89
	l-4.95,0.87c-3.26,0.57-6.35-1.67-6.81-4.95l-0.7-4.96c-0.87-6.18-8.47-8.65-12.81-4.16l-3.48,3.6c-2.3,2.38-6.12,2.38-8.42,0
	l-3.48-3.6c-4.34-4.49-11.94-2.02-12.81,4.16l-0.7,4.96c-0.46,3.28-3.55,5.52-6.81,4.95l-4.95-0.87
	c-6.14-1.08-10.84,5.38-7.92,10.89l2.35,4.44c1.55,2.92,0.37,6.55-2.6,8.01l-4.52,2.21c-5.6,2.74-5.6,10.72,0,13.47l4.52,2.21
	c2.97,1.46,4.15,5.08,2.6,8.01L28.97,136c-2.92,5.51,1.77,11.97,7.92,10.89l4.95-0.87c3.26-0.57,6.35,1.67,6.81,4.95l0.7,4.96
	c0.87,6.18,8.47,8.65,12.81,4.16l3.48-3.6c2.3-2.38,6.12-2.38,8.42,0l3.48,3.6c4.34,4.49,11.94,2.02,12.81-4.16l0.7-4.96
	c0.46-3.28,3.55-5.52,6.81-4.95l4.95,0.87c6.14,1.08,10.84-5.38,7.92-10.89l-2.35-4.44c-1.55-2.92-0.37-6.55,2.6-8.01l4.52-2.21
	C121.11,118.6,121.11,110.62,115.51,107.88z M69.85,132.65c-9.96,0-18.04-8.08-18.04-18.04s8.08-18.04,18.04-18.04
	c9.96,0,18.04,8.08,18.04,18.04S79.82,132.65,69.85,132.65z"/>

    <animateTransform
                attributeType="xml"
                attributeName="transform"
                repeatCount="indefinite"
                type="rotate"
                additive="sum"
                dur="5s"

                keyTimes="
                0;
                .05;
                .95;
                1"

                calcMode="spline"
                keySplines="
                0 0 1 1;
                .5 .2 .5 .8;
                0 0 1 1
                "

                values="
                -90 69.855 114.61;
                -70 69.855 114.61;
                610 69.855 114.61;
                630 69.855 114.61
                "
                >
            />
        </animateTransform>

</g>

<g>
<path class="st0" d="M176.94,90.9l-2.92-1.06c-1.92-0.7-2.89-2.85-2.13-4.75l1.15-2.89c1.43-3.58-1.89-7.24-5.59-6.17l-2.98,0.86
	c-1.97,0.57-4.01-0.61-4.52-2.59l-0.76-3c-0.95-3.74-5.78-4.75-8.15-1.71l-1.9,2.44c-1.26,1.62-3.6,1.87-5.18,0.56l-2.38-1.98
	c-2.96-2.47-7.47-0.45-7.6,3.41l-0.1,3.09c-0.07,2.05-1.81,3.63-3.86,3.5l-3.1-0.2c-3.85-0.25-6.3,4.03-4.14,7.22l1.74,2.57
	c1.15,1.69,0.66,4-1.07,5.09l-2.63,1.66c-3.26,2.06-2.73,6.96,0.9,8.27l2.92,1.06c1.92,0.7,2.89,2.85,2.13,4.75l-1.15,2.89
	c-1.43,3.58,1.89,7.24,5.59,6.17l2.98-0.86c1.97-0.57,4.01,0.61,4.52,2.59l0.76,3c0.95,3.74,5.78,4.75,8.15,1.71l1.9-2.44
	c1.26-1.62,3.6-1.87,5.18-0.56l2.38,1.98c2.96,2.47,7.47,0.45,7.6-3.41l0.1-3.09c0.07-2.05,1.81-3.63,3.86-3.5l3.1,0.2
	c3.85,0.25,6.3-4.03,4.14-7.22l-1.74-2.57c-1.15-1.69-0.66-4,1.07-5.09l2.63-1.66C181.1,97.12,180.57,92.21,176.94,90.9z
	 M150.54,109.16c-6.12,0.66-11.62-3.76-12.28-9.88c-0.66-6.12,3.76-11.62,9.88-12.28c6.12-0.66,11.62,3.76,12.28,9.88
	C161.08,102.99,156.66,108.49,150.54,109.16z"/>

    <animateTransform
                attributeType="xml"
                attributeName="transform"
                repeatCount="indefinite"
                type="rotate"
                additive="sum"
                dur="4s"

                keyTimes="
                0;
                .05;
                .95;
                1"

                calcMode="spline"
                keySplines="
                0 0 1 1;
                .5 .2 .5 .8;
                0 0 1 1
                "

                values="
                630 149.338 98.072;
                610 149.338 98.072;
                -70 149.338 98.072;
                -90 149.338 98.072
                "
                >
            />
        </animateTransform>
</g>

<g>
<path class="st0" d="M130.03,50.27l-1.87-0.45c-1.23-0.29-1.97-1.55-1.64-2.77l0.51-1.85c0.63-2.3-1.66-4.31-3.86-3.4l-1.77,0.74
	c-1.17,0.48-2.51-0.09-2.95-1.28l-0.67-1.79c-0.84-2.23-3.88-2.52-5.12-0.49l-1,1.63c-0.66,1.08-2.08,1.4-3.14,0.7l-1.6-1.05
	c-1.99-1.31-4.62,0.24-4.43,2.62l0.15,1.91c0.1,1.26-0.86,2.35-2.13,2.41l-1.92,0.09c-2.38,0.11-3.59,2.91-2.04,4.72l1.25,1.46
	c0.82,0.96,0.68,2.41-0.3,3.2l-1.5,1.2c-1.86,1.49-1.19,4.46,1.12,5.02l1.87,0.45c1.23,0.29,1.97,1.55,1.64,2.77l-0.51,1.85
	c-0.63,2.3,1.66,4.31,3.86,3.4l1.77-0.74c1.17-0.48,2.51,0.09,2.95,1.28l0.67,1.79c0.84,2.23,3.88,2.52,5.12,0.49l1-1.63
	c0.66-1.08,2.08-1.4,3.14-0.7l1.6,1.05c1.99,1.31,4.62-0.24,4.43-2.62l-0.15-1.91c-0.1-1.26,0.86-2.35,2.13-2.41l1.92-0.09
	c2.38-0.11,3.59-2.91,2.04-4.72l-1.25-1.46c-0.82-0.96-0.68-2.41,0.3-3.2l1.5-1.2C133.01,53.8,132.34,50.82,130.03,50.27z
	 M115.07,63.3c-3.71,0.83-7.4-1.51-8.23-5.22s1.51-7.4,5.22-8.23c3.71-0.83,7.4,1.51,8.23,5.22
	C121.12,58.79,118.78,62.47,115.07,63.3z"/>

    <animateTransform
                attributeType="xml"
                attributeName="transform"
                repeatCount="indefinite"
                type="rotate"
                additive="sum"
                dur="3s"

                keyTimes="
                0;
                .05;
                .95;
                1"

                calcMode="spline"
                keySplines="
                0 0 1 1;
                .5 .2 .5 .8;
                0 0 1 1
                "

                values="
                -90 113.567 56.578;
                -70 113.567 56.578;
                610 113.567 56.578;
                630 113.567 56.578
                "
                >
            />
        </animateTransform>
</g>
</svg>
